<svg xmlns="http://www.w3.org/2000/svg" width="1920.5" height="1080" viewBox="0 0 1920.5 1080"><defs><style>.a{fill:#620126;}.b{fill:#0d0d0c;}.c{fill:#050505;}.d{fill:#fff;}.e{fill:#d0c1c2;}</style></defs><g transform="translate(0.5)"><rect class="a" width="709" height="1080"/><rect class="b" width="1211" height="1080" transform="translate(709)"/><path class="c" d="M560.96,262.98c37.96,118.67,8.54,234.52-53.63,267.98-66.28,35.67-172.06-54.37-204.72-181.05C269.5,221.5,284.94,107.04,366.5,78.5,426.5,57.5,520.5,136.5,560.96,262.98Z"/><path class="d" d="M531.41,261.85C569.5,377.5,547.68,478.71,492.5,499.5s-81.09-84.73-160.91-162.35c-52.09-50.65-26.5-205.91,28.83-226.3C426.5,86.5,496.86,156.92,531.41,261.85Z"/><path class="b" d="M505.18,249.52C548.5,339.5,531.53,454.8,492.5,475.5s-119.06-73.57-158-147-.88-192.86,43-198C433,124,469.12,174.63,505.18,249.52Z"/><path class="b" d="M-.5,940.5s88-10,212-94,158-170,158-170l39-87,10,169s32,20,62,0c0,0-17-90-4-172s16-113,16-113l-86-63s-47,69-103,71c0,0-37,1-20-53,0,0-70-15-75,23s12,56-23,92c0,0-21,15-7,73,0,0,13,60-34,44s-116-20-145,12Z"/><path class="d" d="M421.82,764.23a2.114,2.114,0,0,0-3.06,2.02c1.86,26.71,13.24,187.08,18.74,196.24,6,10-2,32,20,42,20.61,9.37,68.44,19.62,74.39,20.87a2.148,2.148,0,0,0,1.3-.14c1.98-.89,6.76-4.09-5.69-10.73-14.85-7.92-28.72-10.94-15.41-18.76a2.022,2.022,0,0,1,.9-.28c3.51-.26,25.26-1.14,34.38,16.58a10.648,10.648,0,0,0,1.76,2.5c2.13,2.19,9.22,14.1,13.59,9.1a2.09,2.09,0,0,0,.39-2.15,140.6,140.6,0,0,0-8.03-17.5,2.115,2.115,0,0,1,3.21-2.65l.21.18c7,6,21,22,25,14,0,0,3-2-7-11-7.93-7.14-5.17-7.36-3.69-7.14a1.992,1.992,0,0,1,1.1.55c2.17,2.05,12.26,11.11,18.63,8.15a2.074,2.074,0,0,0,1.04-2.61c-.82-2.19-4.37-6.29-17.09-12.95-12.01-6.29-21.72-11.6-27.85-14.99a26.6,26.6,0,0,0-15.06-3.25c-17.52,1.39-58.09,2.92-58.09-12.76V902.63a1.925,1.925,0,0,1,.01-.24c.49-4.27,14.09-123.03,6.6-141.64a2.111,2.111,0,0,0-3.24-.91C472.89,764.42,450.9,778.49,421.82,764.23Z"/><path class="d" d="M283.5,428.5s36,13,35-42c0,0,6.12-27.38-20.38-55.25-2.62-2.75-31.62-31.75,5.38-39.75l3.19-7.87s-2.19-4.13,8.81-3.13c0,0,0-10,8-7l4-5s-1-17,4-16,30,9,40,0c0,0,4-9,17-9s22-4,31,0,22,20,15,38-22,46-13,57c0,0,28.23-.91,8.21,19.87a18.613,18.613,0,0,1-8.3,5.04c-6.14,1.75-15.89,2.56-17.91-8.9,0,0-25-1-15,62l18-6s-56,73-103,71C303.5,481.5,268.5,482.5,283.5,428.5Z"/><path class="b" d="M405.75,278.66c1.08-3.89,4.58-20.34-11.23-27.65a9.311,9.311,0,0,0-8.28.22c-2.12,1.14-3.24,2.76-1.74,4.26,0,0,5.5-2.5,9,0,1.81,1.29,10.5,6.5,10.03,16.87,0,.09-.03.17-.03.26v5.72a1.15,1.15,0,0,0,1.15,1.15h0A1.123,1.123,0,0,0,405.75,278.66Z"/><path class="b" d="M371,259.5v8s12,4,15,11C386,278.5,386,266.5,371,259.5Z"/><path class="e" d="M386,279s9.51-26-9-16C377.49,263,383,272,386,279Z"/><path class="b" d="M329.5,288.5s-4.48-21.63-11.24-14.81c.24-.19-2.76,2.81-2.76,6.81,0,0-11-1-9,3C306.5,283.5,324.5,290.5,329.5,288.5Z"/><path class="b" d="M335.5,270.5s2-12-3-10A38.716,38.716,0,0,1,335.5,270.5Z"/><ellipse class="b" cx="3" cy="8" rx="3" ry="8" transform="translate(526.962 1022.766) rotate(-71.585)"/><ellipse class="b" cx="2.62" cy="6.42" rx="2.62" ry="6.42" transform="matrix(0.866, -0.5, 0.5, 0.866, 555.127, 1018.407)"/><ellipse class="b" cx="2.62" cy="5.6" rx="2.62" ry="5.6" transform="translate(577.125 1012.113) rotate(-45)"/><ellipse class="b" cx="2.62" cy="5.6" rx="2.62" ry="5.6" transform="matrix(0.562, -0.827, 0.827, 0.562, 586.876, 1001.205)"/></g></svg>