<svg xmlns="http://www.w3.org/2000/svg" xmlns:xlink="http://www.w3.org/1999/xlink" width="1920" height="1080.3" viewBox="0 0 1920 1080.3"><defs><style>.a{fill:#101013;}.b{fill:#620126;}.c{fill:#fff;}.d{fill:#e4e4df;}.e{fill:#040507;}.f{fill:#050608;}.g{fill:url(#a);}</style><linearGradient id="a" y1="0.5" x2="1" y2="0.5" gradientUnits="objectBoundingBox"><stop offset="0" stop-opacity="0"/><stop offset="1" stop-color="#101013"/></linearGradient></defs><g transform="translate(0 0.24)"><path class="a" d="M454.95-.24V1080H1920V0L454.95-.24h0"/><path class="b" d="M0,0H364s-32,26-26,52c0,0,48,0,69,9s75,30,75,30l4,90,24.76,899H0Z"/><path class="a" d="M351,0s-24,26-21,51c0,0,34.24,4.61,47.87,8.55s85.61,26.48,85.61,26.48,8.02,8.46.02,16.46c0,0-307.5-78.5-299-10,0,0-4,27,78,62,0,0,66,34,99,33S487.02,217.9,487.02,217.9L562.5,93.5,523.44-.24Z"/><path class="c" d="M318.5,120.5S95.9,45.27,204,135c-1.13,2.77-97.48-65.47,17.41-50.1C234.06,86.59,318.5,120.5,318.5,120.5Z"/><path class="c" d="M325.5,129.5s4,24,8,35,10,26,12,33,1,21,19,21h9s-23,24-82,35c0,0-55-3-58,51l-2.89,76.52L442.5,423.5l90-41,44-90s-76.97-20.18-89.48-74.59C487.5,217.5,325.5,129.5,325.5,129.5Z"/><path class="a" d="M573.38,292.18c-12.62,2.51-41,45.62-44.11,50.39a3.481,3.481,0,0,1-.67.76C504.33,364.21,442,384,442,384c-92.36,25.98-147.7,1.97-151.76.11a3.239,3.239,0,0,0-.52-.19c-52.41-14.8-59.59-3.56-60.57-.59a3.253,3.253,0,0,0-.15,1.03v77.16a3.424,3.424,0,0,1-.12.9c-.52,1.97-2.52,10.43.12,16.58l.83,2.49a3.73,3.73,0,0,1,.18,1.05c.16,7.91,2.21,100.77,10.78,107.15a3.36,3.36,0,0,1,1.25,2.63c.15,5.27.86,18.27,4.15,25.21a3.381,3.381,0,0,1,.02,2.85,8.5,8.5,0,0,0,.86,8.39,3.482,3.482,0,0,0,2.45,1.5c.28.04.57.07.88.11a3.534,3.534,0,0,1,3.19,3.62c-.15,4.34.57,11.11,5.86,14.27a3.7,3.7,0,0,1,1.62,2.2c1.75,6.14,13.29,30.11,15.55,34.78a3.561,3.561,0,0,1,.35,1.67c-.42,11.3-4.53,128.87,4.03,163.13,0,0,15.98,82.92,48.95,140.92.03.06.06.11.09.17l42.51,86.93a3.533,3.533,0,0,0,3.18,1.99H556.96a3.548,3.548,0,0,0,3.52-3.15l65.44-584.22a3.436,3.436,0,0,0-.08-1.24L578,293C577.55,291.18,575.22,291.82,573.38,292.18Z"/><path class="c" d="M550.44,590.69a6.777,6.777,0,0,1,6.14,3.31c7.93,13.43,35.93,61.07,35.93,64.5,0,4.02-73.19,8.99-109.14,1.99a.277.277,0,0,0-.09-.01C453.06,657.7,361.1,645.02,336,640c-4.39-.88-20.37-12.44-28.47-16.48a9.2,9.2,0,0,0-4.19-.96c-3.58.01-15.6-.47-15.29.39-2.15,2.11-20.42,20.43-12.96-4.14a9.434,9.434,0,0,1,4.55-4.81c5.15-2.3,25.98-11.62,26.86-12.49.92-.92-19.5,1.5-26.5,5.5-.06.03-10.07,7.97-20,11-7.85,2.48-10-5-4.25-9.75,5.64-4.66,14.19-14.36,27.49-17.68l.53-.12c1.01-.2,4.58-.92,4.58-.92a1.559,1.559,0,0,0-.47-3.08c-2.02.4-17.14,5.09-20.37,8.04-1.91,1.91-7.8,5.89-12.5,9.5-5.52,4.24-11.6.9-8.97-5.48a.915.915,0,0,1,.09-.17c3.27-5.53,18.68-27.25,49.1-31.81,1.25-.27,5.04-1.12,3.28-3.04,0,0-25.5-3.5-32.5-1.5s-21,13-26.5,8.5c-4.69-3.84,2.31-11.36,6.25-13.47a.842.842,0,0,1,.14-.06c1.07-.41,14.12-5.36,21.58-8.19a45.157,45.157,0,0,1,11.79-2.75c13.14-1.24,38.64-2.44,44.16.43a.5.5,0,0,0,.14.08c7.43,1.45,12.94,11.96,14.93,13.95s4.5,6.5,6.5,10.5,14.5,21.5,26.5,21.5C392.79,595.16,511.76,594.38,550.44,590.69Z"/><ellipse class="b" cx="8" cy="3.5" rx="8" ry="3.5" transform="matrix(0.866, -0.5, 0.5, 0.866, 231.816, 566.955)"/><ellipse class="b" cx="6.48" cy="3.5" rx="6.48" ry="3.5" transform="translate(249.085 619.758) rotate(-62.166)"/><ellipse class="b" cx="7.1" cy="3.01" rx="7.1" ry="3.01" transform="translate(241.376 607.426) rotate(-56.497)"/><ellipse class="b" cx="2" cy="5" rx="2" ry="5" transform="translate(272.5 623.5)"/><path class="c" d="M299.5,731.5s34-10,60-28h0s44,104,60,116c0,0,11.11,11.11,45.82,23.54a18.594,18.594,0,0,1,8.94,6.73A107.418,107.418,0,0,1,481,861l1,2,10.52,23.9c.27.6.48,1.22.7,1.85,2.28,6.67,18.95,33.92,11.29,37.75-8,4-4.5-.5-18-23,0,0-17-30-21-32S469,890,469,890h0s9,32,8.5,44.5h0S474,949,466,934h0s-3-16-7.5-28.5c-4.54-12.62-10-19-10-19h0s-3,0,0,5S455,910,455,916c0,5.34,7.86,30.41-2.49,26.05a9.068,9.068,0,0,1-5.23-6.53c-1.46-6.85-4.98-21.93-8.79-28.02-5-8-10-20-12-19s1,8,1,8,17,39,10,39S433,938,423,920h0l-19.5-28.5h0s-5.09-5.16-10.5-11.5c-1.34-1.57-22-29-23.5-36.5h0l-70-112Z"/><ellipse class="b" cx="3.5" cy="7.5" rx="3.5" ry="7.5" transform="matrix(0.932, -0.362, 0.362, 0.932, 497.012, 920.254)"/><ellipse class="b" cx="4" cy="7" rx="4" ry="7" transform="translate(468.5 929.5)"/><ellipse class="b" cx="3.5" cy="6.5" rx="3.5" ry="6.5" transform="translate(450 933)"/><ellipse class="b" cx="3.34" cy="5.19" rx="3.34" ry="5.19" transform="translate(431.11 930.026) rotate(-15.546)"/><path class="d" d="M321.5,390.5s-10-4-6-23l1-14s-4-5-5,2c0,0,1,24-1,26,0,0-2,7-4,7C306.5,388.5,314.5,393.5,321.5,390.5Z"/><path class="d" d="M277.11,254.73s38.39,9.77,41.39,19.77c0,0-22.07-12.47-46.03-18.73C277.5,254.5,277.11,254.73,277.11,254.73Z"/><path class="d" d="M333.5,267.5s20,13,27,14,35-2,35,3,1,10-21,6S333.5,267.5,333.5,267.5Z"/><path class="d" d="M435.35,189.33l9.42,5.15s-26.27,13.01-65.27,23.01C379.5,217.5,433.2,198.17,435.35,189.33Z"/><path class="d" d="M558.5,292.5c3,0-13,7-19,7s-89-3-93,3c0,0-3-46,6-62l7.07-37.9,7.35,4.04S453.5,271.5,459.5,287.5c0,0,37-2,51,4"/><path class="b" d="M371,178.09c-9.74-5.41-43.89-23.5-29.19-2.55a2.694,2.694,0,0,1,.45,2.02c-.64,3.61-1.36,15.01,15.85,11.77.31.14,9.31-2.59,13.51-6.95A2.726,2.726,0,0,0,371,178.09Z"/><path class="e" d="M343.5,175.5s14-1,15,0S341.5,179.5,343.5,175.5Z"/><path class="f" d="M338.63,151.45a16.577,16.577,0,0,0,6.29-1.6,9.035,9.035,0,0,1,2.25-.81c1.85-.44,4.67-.85,5.33.46,1,2,0,2,0,2h-4.17a6.034,6.034,0,0,0-3.09.87c-1.71,1.04-4.82,2.37-6.99.12A.611.611,0,0,1,338.63,151.45Z"/><path class="g" d="M331,40,463,86l19.56,11.04L464,102,327.18,74.33Z"/></g></svg>