<svg xmlns="http://www.w3.org/2000/svg" xmlns:xlink="http://www.w3.org/1999/xlink" width="1920" height="1080" viewBox="0 0 1920 1080"><defs><style>.a,.f{fill:#fff;}.a{stroke:#707070;}.b{clip-path:url(#a);}.c{fill:#101013;}.d{fill:#620126;}.e{fill:#cfccd3;}.g{fill:#070707;}.h{fill:#fdfdfd;}.i{fill:#060606;}</style><clipPath id="a"><rect class="a" width="1920" height="1080"/></clipPath></defs><g class="b"><g transform="translate(0.31 0.38)"><rect class="c" width="1920" height="1080" transform="translate(-0.31 -0.38)"/><circle class="d" cx="449.5" cy="449.5" r="449.5" transform="translate(532.69 347.62)"/><path class="e" d="M894.69,592.62s-40.01-15.12-47.51-18.94a6.141,6.141,0,0,0-2.62-.68c-2.49-.07-6.7.33-4.08,4.13a8.38,8.38,0,0,0,3.74,2.93c3.56,1.47,10.32,3.81,14.15,5.11a4.176,4.176,0,0,1,2.83,3.96v1.33a2.818,2.818,0,0,1-2.73,2.82c-6.51.18-19.77-.64-25.77-11.65,0,0-9-16-12-13-1.41,1.41,9,23,9,23s-18.5-19.5-20.5-19.5-5,2-2,7,9.39,9.15,9.39,9.15l29.61,15.85,32-1Z"/><path class="f" d="M868.19,750.12l14-98s6-32-11-37c0,0-52-6-54-16,0,0-25-13-21-20,0,0,7.5-2.5,17.5,5.5s22.5,13.5,34.5,12.5,43-9,50-4,7,17,7,17l7,140v12l-29,4-15-15h0"/><path class="f" d="M931.99,505.11a70.506,70.506,0,0,1-10.83,12.65,4.358,4.358,0,0,0-1.39,2.4c-.48,2.43-.65,7.02,4.41,8.46,0,0,5,3-3,8-2,3-5,3,7,10,0,0-5,2-5,5s4,2,4,2l1,18s1,6,11,6h27s17.5,21,15.5,29-18.5,44-18.5,44l22,26,68-4,21-29,6-20s-38-18-49-43c0,0-26,0-32-31Z"/><path class="c" d="M839.19,1080.12S812.18,968.96,834,909.2a58.032,58.032,0,0,1,9.03-16.1c11.71-14.85,43.9-55.14,55.66-64.47,0,0,4-4-4-4s-24,0-30-21l4-53s17,21,44,0l-2-54,11-38s13-62,35-59,25,5,25,5,4,12,1,17-9,32,6,45,49-2,60-21c0,0,23-25,32-22,0,0,31,9,58,53s83,132,83,132,8,23-21,34l-43,23s-20-2-26-39l28.5-16.5s5-4-2-13-52-56-52-56-1-1-2,3c0,0-40,58-65,79s-53,52-28,70c0,0,20,80,5,112l-22.4,74.5Z"/><path class="f" d="M1132.69,826.62s3.84,36.52,27.55,36.07a.342.342,0,0,1,.17.64l-123.72,68.29s-14.98,8.99-26.97-6.96c-.02-.02-.04-.05-.06-.06l-16.87-12.9a.31.31,0,0,0-.13-.06c-1.5-.29-13.48-.44-24.43,5.9a6.045,6.045,0,0,1-5.09.53c-2.02-.74-3.13-2.46,2.56-6.44,9.23-6.46,21.01-8.66,22.78-8.96a.329.329,0,0,0,.27-.29c.1-.88.03-3.74-5.04-3.74a108.662,108.662,0,0,1-12.85-.98.34.34,0,0,0-.26.08c-1.37,1.26-14.99,13.59-16.89,7.9,0,0-2-3,5-8s9-10,12-10c2.71,0,15.67-.41,18.1-.49a.325.325,0,0,0,.3-.44c-.3-.83-1.57-2.57-6.91-2.57a88.2,88.2,0,0,1-12.85-.98.3.3,0,0,0-.27.08c-.37.35-1.78,1.61-5.89,4.89a102.62,102.62,0,0,1-10.42,7.07,2.79,2.79,0,0,1-3.83-.82c-.75-1.25-.75-3.25,2.25-6.25l14.93-14.93c-.43.43.1-.08.17-.09.96-.19,9.12-1.7,20.71.76a.34.34,0,0,0,.31-.58c-2.61-2.42-10.69-9.47-20.11-13.16h-.01c-.13-.07-11.99-7-10-8,0,0-3-5,9-2s35.74,17.69,37.37,19.84-1.87-.34-1.87-.34,3-8,5.3-11.15c1.05-1.44,3.06-1.33,3.1.46.09,3.49.09,7.62.09,8.14a.3.3,0,0,0,.02.1c.74,1.56,19.16,39.79,27.98,31.95l95-73h0"/><ellipse class="d" cx="6.75" cy="2.25" rx="6.75" ry="2.25" transform="translate(952.19 849.12)"/><path class="d" d="M955.41,888.34c.71.71.6,2.96-1.72,5.28s-5.96,3.82-6.67,3.11-.65-2.79,1.67-5.11S954.7,887.63,955.41,888.34Z"/><path class="d" d="M959.45,900.8c.72.96.66,2.99-1.76,4.82s-6.28,2.78-7,1.82.58-2.99,3-4.82S958.72,899.84,959.45,900.8Z"/><ellipse class="d" cx="5.74" cy="1.76" rx="5.74" ry="1.76" transform="translate(957.421 918.726) rotate(-37.156)"/><path class="c" d="M921.69,536.62s9,7,9,9-3,9-3,9-12,0-1-8c0,0-14-5-5-10"/><path class="g" d="M929.69,525.62s-2-5-4-3C925.69,522.62,923.69,523.62,929.69,525.62Z"/><path class="g" d="M1116.19,569.12c-10.78,22.44-78.16,6.85-144-36-63-41-104.78-82.56-94-105s60-17,133.25,23.96C1081.77,491.42,1126.97,546.68,1116.19,569.12Z"/><path class="f" d="M1104.19,559.12c-17,16-65,2-135-41-54.88-33.71-92.54-71.72-80.35-87,14.35-18,54.36-7.59,108.35,22C1101.19,510.12,1112.63,551.17,1104.19,559.12Z"/><path class="g" d="M1093.19,549.12c-19,9-52.46,4.28-116-35-55-34-83.72-64.16-71-79,6-7,39.86-3.11,93,28C1081.19,511.12,1103.67,544.15,1093.19,549.12Z"/><path class="h" d="M950.69,458.62l10.81-14.66s28.72,48.21,95.46,57.43c-.26.22-4.26,17.22-4.26,17.22S975.69,505.62,950.69,458.62Z"/><path class="i" d="M979.69,419.62s36,50,88,52l-11,30s-61-5-95-58Z"/><path class="f" d="M1068.41,471c-3.31,5.74-24.27,1.74-48.72-12.38s-43.15-33.01-39.83-38.75,25.82,1.05,50.28,15.17S1071.72,465.26,1068.41,471Z"/><path class="c" d="M999.39,549.28s1.29,34.34,32.29,32.34l-.38-17.17Z"/></g></g></svg>