<svg xmlns="http://www.w3.org/2000/svg" viewBox="0 0 709.5 1080"><defs><style>.cls-1{fill:#620126;}.cls-2{fill:#050505;}.cls-3{fill:#fff;}.cls-4{fill:#0d0d0c;}.cls-5{fill:#d0c1c2;}</style></defs><g id="Calque_2" data-name="Calque 2"><g id="Calque_3" data-name="Calque 3"><rect class="cls-1" x="0.5" width="709" height="1080"/></g><g id="Calque_2-2" data-name="Calque 2"><path class="cls-2" d="M561.46,263c38,118.68,8.54,234.52-53.64,268-66.28,35.68-172-54.36-204.71-181C270,221.5,285.44,107,367,78.5,427,57.5,521,136.5,561.46,263Z"/><path class="cls-3" d="M531.91,261.85C570,377.5,548.18,478.71,493,499.5s-81.09-84.73-160.91-162.35C280,286.5,305.58,131.24,360.91,110.85,427,86.5,497.36,156.92,531.91,261.85Z"/><path class="cls-4" d="M505.68,249.52C549,339.5,532,454.8,493,475.5s-119.06-73.57-158-147-.88-192.86,43-198C433.5,124,469.62,174.63,505.68,249.52Z"/><path class="cls-4" d="M0,940.5s88-10,212-94,158-170,158-170l39-87,10,169s32,20,62,0c0,0-17-90-4-172s16-113,16-113l-86-63s-47,69-103,71c0,0-37,1-20-53,0,0-70-15-75,23s12,56-23,92c0,0-21,15-7,73,0,0,13,60-34,44s-116-20-145,12Z"/><path class="cls-3" d="M422.32,764.23a2.12,2.12,0,0,0-3.06,2C421.12,793,432.5,953.33,438,962.5c6,10-2,32,20,42,20.61,9.37,68.44,19.62,74.39,20.87a2.08,2.08,0,0,0,1.3-.14c2-.89,6.76-4.09-5.69-10.73-14.85-7.92-28.72-10.94-15.41-18.76a2,2,0,0,1,.89-.28c3.51-.27,25.27-1.14,34.38,16.57a10.21,10.21,0,0,0,1.77,2.5c2.13,2.19,9.22,14.1,13.59,9.1a2.09,2.09,0,0,0,.39-2.15,140.6,140.6,0,0,0-8-17.5,2.12,2.12,0,0,1,3.21-2.66l.21.18c7,6,21,22,25,14,0,0,3-2-7-11-7.93-7.14-5.17-7.36-3.69-7.14a2,2,0,0,1,1.11.54c2.16,2.05,12.26,11.11,18.62,8.16a2.08,2.08,0,0,0,1.05-2.61c-.82-2.19-4.37-6.29-17.09-13-12-6.29-21.72-11.6-27.85-15a26.59,26.59,0,0,0-15.06-3.25C516.57,973.65,476,975.18,476,959.5V902.62a1.93,1.93,0,0,1,0-.24c.5-4.26,14.09-123,6.61-141.64a2.11,2.11,0,0,0-3.24-.91C473.39,764.42,451.4,778.49,422.32,764.23Z"/><path class="cls-3" d="M284,428.5s36,13,35-42c0,0,6.12-27.38-20.38-55.25C296,328.5,267,299.5,304,291.5l3.19-7.87S305,279.5,316,280.5c0,0,0-10,8-7l4-5s-1-17,4-16,30,9,40,0c0,0,4-9,17-9s22-4,31,0,22,20,15,38-22,46-13,57c0,0,28.23-.91,8.21,19.87a18.59,18.59,0,0,1-8.3,5C415.77,365.15,406,366,404,354.5c0,0-25-1-15,62l18-6s-56,73-103,71C304,481.5,269,482.5,284,428.5Z"/><path class="cls-4" d="M406.25,278.66c1.09-3.88,4.58-20.34-11.23-27.64a9.28,9.28,0,0,0-8.28.22c-2.12,1.14-3.24,2.76-1.74,4.26,0,0,5.5-2.5,9,0,1.81,1.29,10.5,6.5,10,16.87,0,.09,0,.17,0,.26v5.72a1.14,1.14,0,0,0,1.15,1.15h0A1.14,1.14,0,0,0,406.25,278.66Z"/><path class="cls-4" d="M371.5,259.5v8s12,4,15,11C386.5,278.5,386.5,266.5,371.5,259.5Z"/><path class="cls-5" d="M386.5,279s9.51-26-9-16C378,263,383.5,272,386.5,279Z"/><path class="cls-4" d="M330,288.5s-4.48-21.63-11.24-14.81c.24-.19-2.76,2.81-2.76,6.81,0,0-11-1-9,3C307,283.5,325,290.5,330,288.5Z"/><path class="cls-4" d="M336,270.5s2-12-3-10A38.72,38.72,0,0,1,336,270.5Z"/></g></g></svg>